<svg width="108" height="108" viewBox="0 0 108 108" fill="none" xmlns="http://www.w3.org/2000/svg">
<g filter="url(#filter0_d_4_3)">
<rect x="4" width="100" height="100" rx="50" fill="#A5122A"/>
<rect x="4" width="100" height="100" rx="50" stroke="#A5122A"/>
</g>
<path d="M38.1553 25.5977C39.1644 25.5977 40.2142 25.7197 41.3047 25.9639C42.4115 26.1917 43.4206 26.6312 44.332 27.2822C45.2435 27.917 45.9922 28.804 46.5781 29.9434C47.1641 31.0827 47.457 32.5475 47.457 34.3379C47.457 35.998 47.2617 37.4548 46.8711 38.708C46.4967 39.945 45.9922 41.0192 45.3574 41.9307C44.7227 42.8258 43.9902 43.5664 43.1602 44.1523C42.3464 44.7383 41.5 45.2103 40.6211 45.5684C39.7422 45.9102 38.8633 46.1543 37.9844 46.3008C37.1055 46.431 36.2917 46.4961 35.543 46.4961C34.4688 46.4961 33.5492 46.4473 32.7842 46.3496C32.0192 46.2357 31.3763 46.1055 30.8555 45.959C30.8717 46.7891 30.8799 47.6517 30.8799 48.5469C30.8962 49.4258 30.9043 50.264 30.9043 51.0615C30.9206 51.8428 30.9287 52.5426 30.9287 53.1611C30.945 53.7633 30.9531 54.1947 30.9531 54.4551C30.9694 55.0247 31.002 55.7409 31.0508 56.6035C31.0996 57.4499 31.1729 58.3288 31.2705 59.2402C31.3844 60.1517 31.5228 61.0469 31.6855 61.9258C31.8646 62.7884 32.0843 63.5127 32.3447 64.0986C32.6214 64.7171 32.9795 65.2461 33.4189 65.6855C33.8584 66.125 34.3304 66.4912 34.835 66.7842C35.3558 67.0771 35.8929 67.3132 36.4463 67.4922C36.9997 67.6712 37.5368 67.8096 38.0576 67.9072C38.318 67.9561 38.5785 67.9967 38.8389 68.0293C39.1156 68.0781 39.3597 68.127 39.5713 68.1758C39.7829 68.2409 39.9538 68.3141 40.084 68.3955C40.2305 68.4932 40.3037 68.6152 40.3037 68.7617C40.3037 68.957 40.2223 69.1117 40.0596 69.2256C39.8968 69.3395 39.5632 69.3965 39.0586 69.3965C38.5378 69.3965 37.8786 69.3151 37.0811 69.1523C36.2835 69.0059 35.3883 68.835 34.3955 68.6396C33.4189 68.4606 32.3773 68.2897 31.2705 68.127C30.1637 67.9805 29.057 67.9072 27.9502 67.9072C26.7458 67.9072 25.6064 67.9723 24.5322 68.1025C23.4743 68.2327 22.5221 68.3711 21.6758 68.5176C20.8457 68.6803 20.1377 68.8268 19.5518 68.957C18.9658 69.0872 18.5508 69.1523 18.3066 69.1523C18.2415 69.1523 18.1602 69.1442 18.0625 69.1279C17.9811 69.1279 17.8916 69.1117 17.7939 69.0791C17.7126 69.0465 17.6393 68.9977 17.5742 68.9326C17.5254 68.8675 17.501 68.7699 17.501 68.6396C17.501 68.4606 17.6068 68.3141 17.8184 68.2002C18.0462 68.0863 18.3392 67.9723 18.6973 67.8584C19.0716 67.7445 19.4867 67.6061 19.9424 67.4434C20.4144 67.2969 20.8864 67.1016 21.3584 66.8574C22.2861 66.3529 22.986 65.6937 23.458 64.8799C23.93 64.0661 24.2799 63.1221 24.5078 62.0479C24.6055 61.5596 24.7031 60.8516 24.8008 59.9238C24.9147 58.9961 25.0205 57.9382 25.1182 56.75C25.2158 55.5456 25.3053 54.2598 25.3867 52.8926C25.4844 51.5091 25.5658 50.1338 25.6309 48.7666C25.696 47.3831 25.7448 46.0566 25.7773 44.7871C25.8262 43.5013 25.8506 42.3538 25.8506 41.3447C25.8506 39.359 25.7936 37.6094 25.6797 36.0957C25.5658 34.582 25.3216 33.402 24.9473 32.5557C24.6543 31.8883 24.2555 31.3594 23.751 30.9688C23.2627 30.5618 22.7174 30.2526 22.1152 30.041C21.5293 29.8294 20.9108 29.6911 20.2598 29.626C19.6087 29.5446 18.974 29.4876 18.3555 29.4551C17.5417 29.4388 16.9964 29.3818 16.7197 29.2842C16.443 29.1702 16.3047 28.9587 16.3047 28.6494C16.3047 28.1774 16.7197 27.9414 17.5498 27.9414C17.9079 27.9414 18.4775 27.9658 19.2588 28.0146C20.04 28.0635 20.9759 28.0879 22.0664 28.0879C22.8639 28.0879 23.7347 28.0635 24.6787 28.0146C25.6227 27.9658 26.5993 27.8763 27.6084 27.7461C28.4548 27.6484 29.2035 27.5264 29.8545 27.3799C30.5218 27.2171 31.1322 27.0625 31.6855 26.916C32.2552 26.7533 32.7842 26.5986 33.2725 26.4521C33.7607 26.2894 34.2572 26.1429 34.7617 26.0127C35.2663 25.8825 35.7871 25.7848 36.3242 25.7197C36.8776 25.6383 37.488 25.5977 38.1553 25.5977ZM31.1484 33.0439C31.0833 33.7275 31.0345 34.5169 31.002 35.4121C30.9694 36.291 30.9368 37.235 30.9043 38.2441C30.888 39.2533 30.8717 40.3031 30.8555 41.3936C30.8555 42.484 30.8555 43.5664 30.8555 44.6406C31.3763 44.8034 31.9622 44.9255 32.6133 45.0068C33.2643 45.0719 34.0456 45.1045 34.957 45.1045C36.1777 45.1045 37.2113 44.8115 38.0576 44.2256C38.9202 43.6396 39.612 42.8665 40.1328 41.9062C40.6699 40.9297 41.0524 39.8311 41.2803 38.6104C41.5244 37.3734 41.6465 36.1201 41.6465 34.8506C41.6465 33.8089 41.5488 32.7998 41.3535 31.8232C41.1745 30.8467 40.8734 29.9922 40.4502 29.2598C40.027 28.5111 39.4574 27.917 38.7412 27.4775C38.0251 27.0218 37.1462 26.7939 36.1045 26.7939C35.2907 26.7939 34.5908 26.9404 34.0049 27.2334C33.4189 27.5264 32.9307 27.9495 32.54 28.5029C32.1494 29.04 31.8402 29.6992 31.6123 30.4805C31.4007 31.2454 31.2461 32.0999 31.1484 33.0439ZM68.5996 28.6494C70.5527 28.6494 72.1559 28.9342 73.4092 29.5039C74.6624 30.0573 75.6553 30.7734 76.3877 31.6523C77.1201 32.515 77.6247 33.4753 77.9014 34.5332C78.1943 35.5749 78.3408 36.584 78.3408 37.5605C78.3408 38.5208 78.2188 39.4974 77.9746 40.4902C77.7305 41.4668 77.3643 42.3864 76.876 43.249C76.404 44.1117 75.818 44.8929 75.1182 45.5928C74.4346 46.2764 73.6452 46.7972 72.75 47.1553L71.749 47.5459C72.5465 49.9385 73.4987 51.9893 74.6055 53.6982C75.7122 55.4072 76.9004 56.8151 78.1699 57.9219C79.4557 59.0286 80.7904 59.8424 82.1738 60.3633C83.5736 60.8841 84.9652 61.1445 86.3486 61.1445C87.1462 61.1445 87.8704 61.0387 88.5215 60.8271C89.1888 60.6156 89.7585 60.3063 90.2305 59.8994C90.7188 59.4762 91.0931 58.9717 91.3535 58.3857C91.6139 57.7835 91.7441 57.0918 91.7441 56.3105C91.7441 55.7246 91.7116 55.2363 91.6465 54.8457C91.5814 54.4551 91.5081 54.1377 91.4268 53.8936C91.3617 53.6331 91.2965 53.4297 91.2314 53.2832C91.1663 53.1367 91.1338 53.0065 91.1338 52.8926C91.1338 52.8112 91.1501 52.7461 91.1826 52.6973C91.2152 52.6322 91.2803 52.5996 91.3779 52.5996C91.5244 52.5996 91.7035 52.7217 91.915 52.9658C92.1266 53.1937 92.3219 53.5029 92.501 53.8936C92.6963 54.2842 92.859 54.7318 92.9893 55.2363C93.1195 55.7246 93.1846 56.2292 93.1846 56.75C93.1846 57.987 93.0055 59.1344 92.6475 60.1924C92.2894 61.2503 91.736 62.1699 90.9873 62.9512C90.2549 63.7324 89.3271 64.3428 88.2041 64.7822C87.0811 65.2217 85.7627 65.4414 84.249 65.4414C82.1331 65.4414 80.237 65.124 78.5605 64.4893C76.9004 63.8708 75.4274 63.0651 74.1416 62.0723C72.8558 61.0794 71.749 59.9727 70.8213 58.752C69.8936 57.515 69.1042 56.2861 68.4531 55.0654C67.8021 53.8285 67.2812 52.6647 66.8906 51.5742C66.5 50.4837 66.1989 49.5885 65.9873 48.8887C65.5153 48.9538 65.0677 49.0026 64.6445 49.0352C64.2214 49.0514 63.8226 49.0596 63.4482 49.0596C62.9925 49.0596 62.6019 49.0514 62.2764 49.0352C61.9671 49.0189 61.723 48.9945 61.5439 48.9619C61.5765 50.0199 61.6172 51.1429 61.666 52.3311C61.7311 53.5029 61.8125 54.6341 61.9102 55.7246C62.0078 56.8151 62.1299 57.7998 62.2764 58.6787C62.4229 59.5413 62.5938 60.2005 62.7891 60.6562C63.1309 61.4212 63.5703 62.0234 64.1074 62.4629C64.6445 62.8861 65.1735 63.2197 65.6943 63.4639C66.2152 63.7243 66.6628 63.9277 67.0371 64.0742C67.4115 64.2207 67.5986 64.3753 67.5986 64.5381C67.5986 64.7497 67.3626 64.8555 66.8906 64.8555C66.3698 64.8555 65.7839 64.7741 65.1328 64.6113C64.4818 64.4648 63.7738 64.3021 63.0088 64.123C62.2601 63.944 61.4626 63.7731 60.6162 63.6104C59.7699 63.4639 58.891 63.3906 57.9795 63.3906C57.1006 63.3906 56.1973 63.4232 55.2695 63.4883C54.3418 63.5697 53.4954 63.6104 52.7305 63.6104C51.6725 63.6104 50.9157 63.5371 50.46 63.3906C50.0042 63.2441 49.7764 63 49.7764 62.6582C49.7764 62.4466 49.8415 62.2757 49.9717 62.1455C50.1019 62.0153 50.3542 61.9502 50.7285 61.9502C51.1517 61.9502 51.526 61.9583 51.8516 61.9746C52.1934 61.9909 52.5352 61.999 52.877 61.999C53.6745 61.999 54.3581 61.9421 54.9277 61.8281C55.5137 61.7142 55.9857 61.4863 56.3438 61.1445C56.7018 60.7865 56.9622 60.29 57.125 59.6553C57.304 59.0205 57.3936 58.1823 57.3936 57.1406C57.3936 56.7174 57.3773 56.0176 57.3447 55.041C57.3122 54.0645 57.2552 52.9333 57.1738 51.6475C57.0924 50.3617 56.9867 48.9863 56.8564 47.5215C56.7425 46.0566 56.6042 44.6243 56.4414 43.2246C56.2786 41.8086 56.0833 40.4902 55.8555 39.2695C55.6276 38.0488 55.3753 37.0397 55.0986 36.2422C54.8057 35.4447 54.4557 34.818 54.0488 34.3623C53.6419 33.9066 53.1781 33.5566 52.6572 33.3125C52.1527 33.0684 51.5993 32.9056 50.9971 32.8242C50.4111 32.7428 49.7926 32.6696 49.1416 32.6045C48.8649 32.5719 48.6452 32.515 48.4824 32.4336C48.3197 32.3359 48.2383 32.1732 48.2383 31.9453C48.2383 31.75 48.3034 31.5872 48.4336 31.457C48.5638 31.3105 48.8324 31.221 49.2393 31.1885C49.695 31.1559 50.1019 31.1396 50.46 31.1396C50.818 31.1396 51.1761 31.1396 51.5342 31.1396C52.0225 31.1396 52.4945 31.1396 52.9502 31.1396C53.4059 31.1396 53.8861 31.1315 54.3906 31.1152C54.9115 31.0827 55.4811 31.042 56.0996 30.9932C56.7344 30.9281 57.4668 30.8467 58.2969 30.749C59.3711 30.6351 60.3477 30.4642 61.2266 30.2363C62.1217 29.9922 62.9681 29.7562 63.7656 29.5283C64.5794 29.2842 65.3688 29.0807 66.1338 28.918C66.915 28.7389 67.737 28.6494 68.5996 28.6494ZM61.4951 47.6924C63.3831 47.6761 65.0026 47.4076 66.3535 46.8867C67.7207 46.3659 68.8438 45.6579 69.7227 44.7627C70.6016 43.8512 71.2445 42.7852 71.6514 41.5645C72.0745 40.3438 72.2861 39.0254 72.2861 37.6094C72.2861 35.0866 71.8223 33.1904 70.8945 31.9209C69.9668 30.6351 68.6484 29.9922 66.9395 29.9922C66.2233 29.9922 65.5885 30.1224 65.0352 30.3828C64.4818 30.627 63.9935 30.9769 63.5703 31.4326C63.1634 31.8721 62.8298 32.4092 62.5693 33.0439C62.3089 33.6624 62.1136 34.346 61.9834 35.0947C61.7393 36.6572 61.5846 38.2116 61.5195 39.7578C61.4707 41.2878 61.4463 42.7689 61.4463 44.2012L61.4951 47.6924Z" fill="#D9D9D9"/>
<path d="M54.5 6L55.0613 7.72746H56.8776L55.4082 8.79508L55.9695 10.5225L54.5 9.45492L53.0305 10.5225L53.5918 8.79508L52.1224 7.72746H53.9387L54.5 6Z" fill="#D9D9D9"/>
<path d="M66.5 8L67.0613 9.72746H68.8776L67.4082 10.7951L67.9695 12.5225L66.5 11.4549L65.0305 12.5225L65.5918 10.7951L64.1224 9.72746H65.9387L66.5 8Z" fill="#D9D9D9"/>
<path d="M66.5 88L67.0613 89.7275H68.8776L67.4082 90.7951L67.9695 92.5225L66.5 91.4549L65.0305 92.5225L65.5918 90.7951L64.1224 89.7275H65.9387L66.5 88Z" fill="#D9D9D9"/>
<path d="M54.5 90L55.0613 91.7275H56.8776L55.4082 92.7951L55.9695 94.5225L54.5 93.4549L53.0305 94.5225L53.5918 92.7951L52.1224 91.7275H53.9387L54.5 90Z" fill="#D9D9D9"/>
<path d="M42.5 8L43.0613 9.72746H44.8776L43.4082 10.7951L43.9695 12.5225L42.5 11.4549L41.0305 12.5225L41.5918 10.7951L40.1224 9.72746H41.9387L42.5 8Z" fill="#D9D9D9"/>
<path d="M42.5 88L43.0613 89.7275H44.8776L43.4082 90.7951L43.9695 92.5225L42.5 91.4549L41.0305 92.5225L41.5918 90.7951L40.1224 89.7275H41.9387L42.5 88Z" fill="#D9D9D9"/>
<path d="M54 4L55.3471 7.10942H59.7063L56.1796 9.03115L57.5267 12.1406L54 10.2188L50.4733 12.1406L51.8204 9.03115L48.2937 7.10942H52.6529L54 4Z" fill="#D9D9D9"/>
<path d="M54 88L55.3471 91.1094H59.7063L56.1796 93.0312L57.5267 96.1406L54 94.2188L50.4733 96.1406L51.8204 93.0312L48.2937 91.1094H52.6529L54 88Z" fill="#D9D9D9"/>
<path d="M75 11L75.449 12.382H76.9021L75.7265 13.2361L76.1756 14.618L75 13.7639L73.8244 14.618L74.2735 13.2361L73.0979 12.382H74.551L75 11Z" fill="#D9D9D9"/>
<path d="M75 85L75.449 86.382H76.9021L75.7265 87.2361L76.1756 88.618L75 87.7639L73.8244 88.618L74.2735 87.2361L73.0979 86.382H74.551L75 85Z" fill="#D9D9D9"/>
<path d="M34 11L34.449 12.382H35.9021L34.7265 13.2361L35.1756 14.618L34 13.7639L32.8244 14.618L33.2735 13.2361L32.0979 12.382H33.551L34 11Z" fill="#D9D9D9"/>
<path d="M34 85L34.449 86.382H35.9021L34.7265 87.2361L35.1756 88.618L34 87.7639L32.8244 88.618L33.2735 87.2361L32.0979 86.382H33.551L34 85Z" fill="#D9D9D9"/>
<defs>
<filter id="filter0_d_4_3" x="0" y="0" width="108" height="108" filterUnits="userSpaceOnUse" color-interpolation-filters="sRGB">
<feFlood flood-opacity="0" result="BackgroundImageFix"/>
<feColorMatrix in="SourceAlpha" type="matrix" values="0 0 0 0 0 0 0 0 0 0 0 0 0 0 0 0 0 0 127 0" result="hardAlpha"/>
<feOffset dy="4"/>
<feGaussianBlur stdDeviation="2"/>
<feComposite in2="hardAlpha" operator="out"/>
<feColorMatrix type="matrix" values="0 0 0 0 0 0 0 0 0 0 0 0 0 0 0 0 0 0 0.25 0"/>
<feBlend mode="normal" in2="BackgroundImageFix" result="effect1_dropShadow_4_3"/>
<feBlend mode="normal" in="SourceGraphic" in2="effect1_dropShadow_4_3" result="shape"/>
</filter>
</defs>
</svg>
